<svg xmlns="http://www.w3.org/2000/svg" xmlns:xlink="http://www.w3.org/1999/xlink" width="500" zoomAndPan="magnify" viewBox="0 0 375 374.999991" height="500" preserveAspectRatio="xMidYMid meet" version="1.0"><defs><g/><clipPath id="72f96d3fc9"><path d="M 181.511719 86.753906 L 241 86.753906 L 241 252 L 181.511719 252 Z M 181.511719 86.753906 " clip-rule="nonzero"/></clipPath><clipPath id="af815155ae"><path d="M 248 118 L 307 118 L 307 283.253906 L 248 283.253906 Z M 248 118 " clip-rule="nonzero"/></clipPath><clipPath id="79260ee7ea"><path d="M 327 93 L 337.511719 93 L 337.511719 104 L 327 104 Z M 327 93 " clip-rule="nonzero"/></clipPath></defs><g clip-path="url(#72f96d3fc9)"><path fill="#d9d9d9" d="M 181.5625 179.234375 L 181.5625 158.703125 C 185.722656 158.476562 188.859375 157.851562 190.972656 156.820312 C 193.082031 155.792969 194.90625 154.074219 196.449219 151.648438 C 197.988281 149.222656 199.042969 146.1875 199.613281 142.535156 C 200.070312 139.800781 200.296875 135.035156 200.296875 128.25 C 200.296875 117.1875 200.8125 109.472656 201.839844 105.109375 C 202.867188 100.75 204.71875 97.238281 207.398438 94.589844 C 210.082031 91.9375 213.988281 89.839844 219.121094 88.300781 C 222.601562 87.273438 228.078125 86.761719 235.550781 86.761719 L 240.085938 86.761719 L 240.085938 107.207031 C 233.753906 107.207031 229.6875 107.5625 227.894531 108.277344 C 226.09375 108.988281 224.769531 110.070312 223.914062 111.523438 C 223.058594 112.980469 222.632812 115.476562 222.632812 119.011719 C 222.632812 122.605469 222.375 129.417969 221.859375 139.457031 C 221.574219 145.101562 220.832031 149.679688 219.636719 153.1875 C 218.4375 156.695312 216.910156 159.589844 215.058594 161.867188 C 213.203125 164.148438 210.363281 166.519531 206.542969 168.96875 C 209.910156 170.910156 212.660156 173.175781 214.800781 175.769531 C 216.941406 178.367188 218.578125 181.515625 219.722656 185.222656 C 220.863281 188.929688 221.601562 193.894531 221.945312 200.109375 C 222.34375 209.574219 222.542969 215.621094 222.542969 218.242188 C 222.542969 222.007812 223 224.628906 223.914062 226.113281 C 224.824219 227.597656 226.207031 228.722656 228.0625 229.492188 C 229.914062 230.261719 233.925781 230.648438 240.085938 230.648438 L 240.085938 251.179688 L 235.550781 251.179688 C 227.847656 251.179688 221.945312 250.5625 217.839844 249.339844 C 213.730469 248.113281 210.265625 246.074219 207.441406 243.222656 C 204.621094 240.371094 202.722656 236.847656 201.753906 232.65625 C 200.78125 228.464844 200.296875 221.863281 200.296875 212.855469 C 200.296875 202.363281 199.839844 195.546875 198.929688 192.410156 C 197.671875 187.847656 195.777344 184.582031 193.238281 182.613281 C 190.699219 180.644531 186.808594 179.519531 181.5625 179.234375 " fill-opacity="1" fill-rule="nonzero"/></g><path fill="#38b6ff" d="M 311.367188 129.351562 L 297.976562 129.351562 L 297.976562 115.964844 L 311.367188 115.964844 L 311.367188 129.351562 " fill-opacity="1" fill-rule="nonzero"/><path fill="#38b6ff" d="M 308.207031 156.128906 L 297.976562 156.128906 L 297.976562 145.902344 L 308.207031 145.902344 L 308.207031 156.128906 " fill-opacity="1" fill-rule="nonzero"/><g clip-path="url(#af815155ae)"><path fill="#38b6ff" d="M 269.246094 139.582031 L 269.246094 129.351562 L 279.480469 129.351562 L 279.480469 139.582031 Z M 295.273438 187.410156 C 292.707031 185.441406 290.796875 182.179688 289.539062 177.617188 C 288.851562 175.042969 288.441406 170.109375 288.304688 162.824219 L 279.480469 162.824219 L 279.480469 149.4375 L 288.109375 149.4375 C 287.898438 144.273438 287.445312 140.25 286.757812 137.367188 C 285.761719 133.175781 283.863281 129.640625 281.070312 126.761719 C 278.273438 123.882812 274.824219 121.839844 270.714844 120.640625 C 266.609375 119.445312 260.707031 118.847656 253.003906 118.847656 L 248.472656 118.847656 L 248.472656 139.292969 C 254.914062 139.292969 259.066406 139.675781 260.917969 140.445312 C 262.773438 141.214844 264.054688 142.316406 264.769531 143.738281 C 265.484375 145.164062 265.867188 148.015625 265.925781 152.292969 C 266.210938 165.867188 266.664062 174.648438 267.292969 178.640625 C 268.261719 184.460938 270.085938 189.25 272.769531 193.011719 C 274.707031 195.636719 277.789062 198.316406 282.011719 201.054688 C 278.757812 202.9375 276.089844 205.117188 274.011719 207.597656 C 271.925781 210.078125 270.261719 213.101562 269.003906 216.667969 C 267.75 220.230469 266.980469 224.980469 266.695312 230.910156 C 266.238281 240.71875 265.996094 247.363281 265.96875 250.839844 C 265.9375 254.320312 265.484375 256.785156 264.597656 258.242188 C 263.714844 259.695312 262.332031 260.808594 260.449219 261.578125 C 258.566406 262.347656 254.574219 262.734375 248.472656 262.734375 L 248.472656 283.265625 L 253.003906 283.265625 C 260.476562 283.265625 265.953125 282.75 269.433594 281.722656 C 274.625 280.183594 278.558594 278.089844 281.242188 275.4375 C 283.921875 272.785156 285.761719 269.261719 286.757812 264.871094 C 287.757812 260.476562 288.257812 252.753906 288.257812 241.6875 C 288.257812 234.960938 288.484375 230.226562 288.941406 227.488281 C 289.570312 223.839844 290.640625 220.800781 292.148438 218.378906 C 293.660156 215.953125 295.472656 214.230469 297.582031 213.203125 C 299.691406 212.175781 302.832031 211.546875 306.996094 211.320312 L 306.996094 190.789062 C 301.746094 190.503906 297.839844 189.375 295.273438 187.410156 " fill-opacity="1" fill-rule="nonzero"/></g><g clip-path="url(#79260ee7ea)"><path fill="#38b6ff" d="M 337.480469 103.347656 L 327.246094 103.347656 L 327.246094 93.117188 L 337.480469 93.117188 L 337.480469 103.347656 " fill-opacity="1" fill-rule="nonzero"/></g><path fill="#38b6ff" d="M 286.175781 115.964844 L 267.074219 115.964844 L 267.074219 96.867188 L 286.175781 96.867188 L 286.175781 115.964844 " fill-opacity="1" fill-rule="nonzero"/><g fill="#d9d9d9" fill-opacity="1"><g transform="translate(34.434023, 283.760343)"><g><path d="M 162.203125 -3.097656 L 83.683594 -205.078125 C 82.910156 -207.140625 79.292969 -207.140625 78.519531 -205.078125 L 0.257812 -3.097656 C -0.515625 -1.550781 0.515625 0 2.839844 0 L 38.226562 0 C 39.257812 0 40.550781 -0.515625 40.808594 -1.550781 L 81.101562 -116.742188 L 121.910156 -1.550781 C 122.167969 -0.515625 123.457031 0 124.234375 0 L 159.875 0 C 161.683594 0 162.976562 -1.550781 162.203125 -3.097656 Z M 162.203125 -3.097656 "/></g></g></g></svg>