<svg xmlns="http://www.w3.org/2000/svg" xmlns:xlink="http://www.w3.org/1999/xlink" width="500" zoomAndPan="magnify" viewBox="0 0 375 374.999991" height="500" preserveAspectRatio="xMidYMid meet" version="1.0"><defs><g/><clipPath id="84953401c9"><path d="M 161.089844 49.433594 L 242 49.433594 L 242 275 L 161.089844 275 Z M 161.089844 49.433594 " clip-rule="nonzero"/></clipPath><clipPath id="3cdc6c4c2b"><path d="M 252 93 L 334 93 L 334 318.683594 L 252 318.683594 Z M 252 93 " clip-rule="nonzero"/></clipPath><clipPath id="359ebb0597"><path d="M 360 58 L 374.839844 58 L 374.839844 73 L 360 73 Z M 360 58 " clip-rule="nonzero"/></clipPath></defs><g clip-path="url(#84953401c9)"><path fill="#d9d9d9" d="M 161.15625 176.152344 L 161.15625 148.019531 C 166.859375 147.710938 171.160156 146.847656 174.050781 145.441406 C 176.941406 144.03125 179.445312 141.671875 181.554688 138.351562 C 183.664062 135.027344 185.109375 130.867188 185.890625 125.867188 C 186.515625 122.113281 186.828125 115.589844 186.828125 106.289062 C 186.828125 91.132812 187.53125 80.558594 188.9375 74.582031 C 190.347656 68.605469 192.886719 63.800781 196.558594 60.164062 C 200.234375 56.53125 205.585938 53.660156 212.621094 51.550781 C 217.386719 50.144531 224.890625 49.441406 235.128906 49.441406 L 241.34375 49.441406 L 241.34375 77.457031 C 232.667969 77.457031 227.097656 77.945312 224.636719 78.921875 C 222.175781 79.898438 220.359375 81.378906 219.1875 83.375 C 218.011719 85.367188 217.429688 88.785156 217.429688 93.632812 C 217.429688 98.554688 217.074219 107.894531 216.371094 121.644531 C 215.980469 129.382812 214.964844 135.652344 213.324219 140.457031 C 211.683594 145.265625 209.589844 149.230469 207.050781 152.355469 C 204.511719 155.480469 200.621094 158.726562 195.386719 162.085938 C 200 164.742188 203.769531 167.847656 206.703125 171.40625 C 209.632812 174.960938 211.875 179.277344 213.441406 184.359375 C 215.003906 189.4375 216.019531 196.234375 216.488281 204.75 C 217.035156 217.722656 217.308594 226.007812 217.308594 229.601562 C 217.308594 234.757812 217.933594 238.351562 219.1875 240.386719 C 220.4375 242.417969 222.332031 243.960938 224.871094 245.015625 C 227.410156 246.070312 232.902344 246.597656 241.34375 246.597656 L 241.34375 274.730469 L 235.128906 274.730469 C 224.578125 274.730469 216.488281 273.886719 210.863281 272.210938 C 205.234375 270.53125 200.488281 267.734375 196.617188 263.828125 C 192.75 259.921875 190.148438 255.09375 188.824219 249.351562 C 187.492188 243.609375 186.828125 234.5625 186.828125 222.21875 C 186.828125 207.839844 186.203125 198.5 184.953125 194.203125 C 183.234375 187.953125 180.636719 183.476562 177.15625 180.78125 C 173.679688 178.085938 168.34375 176.542969 161.15625 176.152344 " fill-opacity="1" fill-rule="nonzero"/></g><path fill="#38b6ff" d="M 339.011719 107.800781 L 320.664062 107.800781 L 320.664062 89.453125 L 339.011719 89.453125 L 339.011719 107.800781 " fill-opacity="1" fill-rule="nonzero"/><path fill="#38b6ff" d="M 334.679688 144.492188 L 320.664062 144.492188 L 320.664062 130.476562 L 334.679688 130.476562 L 334.679688 144.492188 " fill-opacity="1" fill-rule="nonzero"/><g clip-path="url(#3cdc6c4c2b)"><path fill="#38b6ff" d="M 281.300781 121.820312 L 281.300781 107.800781 L 295.320312 107.800781 L 295.320312 121.820312 Z M 316.960938 187.351562 C 313.441406 184.65625 310.824219 180.183594 309.105469 173.933594 C 308.160156 170.40625 307.597656 163.648438 307.414062 153.667969 L 295.320312 153.667969 L 295.320312 135.320312 L 307.148438 135.320312 C 306.851562 128.246094 306.234375 122.734375 305.292969 118.78125 C 303.925781 113.039062 301.328125 108.195312 297.5 104.25 C 293.671875 100.304688 288.941406 97.507812 283.3125 95.867188 C 277.683594 94.222656 269.597656 93.40625 259.046875 93.40625 L 252.832031 93.40625 L 252.832031 121.417969 C 261.664062 121.417969 267.351562 121.945312 269.890625 123 C 272.429688 124.058594 274.1875 125.5625 275.167969 127.515625 C 276.144531 129.46875 276.671875 133.375 276.75 139.234375 C 277.140625 157.832031 277.761719 169.867188 278.625 175.339844 C 279.949219 183.3125 282.453125 189.871094 286.128906 195.03125 C 288.785156 198.625 293.003906 202.300781 298.789062 206.050781 C 294.332031 208.628906 290.679688 211.617188 287.828125 215.015625 C 284.972656 218.417969 282.6875 222.558594 280.96875 227.441406 C 279.25 232.324219 278.195312 238.832031 277.804688 246.957031 C 277.179688 260.398438 276.847656 269.5 276.808594 274.269531 C 276.765625 279.035156 276.144531 282.414062 274.933594 284.410156 C 273.71875 286.402344 271.824219 287.925781 269.246094 288.980469 C 266.667969 290.035156 261.195312 290.5625 252.832031 290.5625 L 252.832031 318.695312 L 259.046875 318.695312 C 269.285156 318.695312 276.789062 317.992188 281.554688 316.585938 C 288.667969 314.472656 294.058594 311.605469 297.734375 307.96875 C 301.40625 304.335938 303.925781 299.507812 305.292969 293.492188 C 306.664062 287.472656 307.347656 276.886719 307.347656 261.726562 C 307.347656 252.507812 307.660156 246.019531 308.285156 242.269531 C 309.144531 237.269531 310.609375 233.109375 312.679688 229.785156 C 314.75 226.464844 317.234375 224.101562 320.125 222.695312 C 323.015625 221.289062 327.316406 220.429688 333.023438 220.117188 L 333.023438 191.984375 C 325.828125 191.59375 320.476562 190.046875 316.960938 187.351562 " fill-opacity="1" fill-rule="nonzero"/></g><g clip-path="url(#359ebb0597)"><path fill="#38b6ff" d="M 374.789062 72.167969 L 360.769531 72.167969 L 360.769531 58.152344 L 374.789062 58.152344 L 374.789062 72.167969 " fill-opacity="1" fill-rule="nonzero"/></g><path fill="#38b6ff" d="M 304.492188 89.453125 L 278.324219 89.453125 L 278.324219 63.289062 L 304.492188 63.289062 L 304.492188 89.453125 " fill-opacity="1" fill-rule="nonzero"/><g fill="#d9d9d9" fill-opacity="1"><g transform="translate(2.246849, 283.760343)"><g><path d="M 162.203125 -3.097656 L 83.683594 -205.078125 C 82.910156 -207.140625 79.292969 -207.140625 78.519531 -205.078125 L 0.257812 -3.097656 C -0.515625 -1.550781 0.515625 0 2.839844 0 L 38.226562 0 C 39.257812 0 40.550781 -0.515625 40.808594 -1.550781 L 81.101562 -116.742188 L 121.910156 -1.550781 C 122.167969 -0.515625 123.457031 0 124.234375 0 L 159.875 0 C 161.683594 0 162.976562 -1.550781 162.203125 -3.097656 Z M 162.203125 -3.097656 "/></g></g></g></svg>